<?xml version="1.0" standalone="no"?>
<!DOCTYPE svg PUBLIC "-//W3C//DTD SVG 20010904//EN"
 "http://www.w3.org/TR/2001/REC-SVG-20010904/DTD/svg10.dtd">
<svg version="1.0" xmlns="http://www.w3.org/2000/svg"
 width="300.000000pt" height="300.000000pt" viewBox="0 0 300.000000 300.000000"
 preserveAspectRatio="xMidYMid meet">
<metadata>
Created by potrace 1.11, written by Peter Selinger 2001-2013
</metadata>
<g transform="translate(0.000000,300.000000) scale(0.100000,-0.100000)"
fill="#000000" stroke="none">
<path d="M1067 2001 c-20 -56 -57 -106 -118 -157 l-44 -37 -5 48 c-5 44 -6 47
-20 30 -8 -9 -46 -39 -85 -66 -93 -63 -120 -87 -143 -128 l-20 -33 -18 33
c-16 32 -17 33 -25 12 -15 -40 -23 -177 -11 -169 7 4 12 13 12 20 0 7 14 33
31 59 37 56 129 107 194 107 135 0 245 -108 245 -240 0 -117 -61 -195 -185
-237 l-40 -13 60 6 c33 3 85 17 115 31 50 23 65 25 176 23 114 -1 122 0 127
19 9 37 -13 50 -90 53 l-73 3 42 68 c22 37 39 70 36 72 -2 3 -18 -1 -36 -7
-17 -7 -34 -10 -37 -7 -3 3 6 31 20 62 27 58 42 144 31 173 -6 15 -8 15 -24 2
-17 -15 -76 -48 -86 -48 -3 0 6 24 19 53 37 81 41 135 16 214 -12 37 -27 75
-34 85 -11 14 -15 11 -30 -31z"/>
<path d="M742 1659 c-46 -14 -118 -88 -131 -135 -31 -111 18 -216 121 -258
170 -71 346 112 269 279 -46 99 -150 145 -259 114z m146 -19 c19 -12 32 -28
32 -40 0 -19 -11 -23 -70 -24 -12 0 -14 -10 -12 -48 4 -45 7 -50 44 -69 l41
-21 26 30 27 29 -22 34 c-13 19 -23 47 -23 63 -1 28 0 29 19 11 29 -26 65
-106 52 -114 -7 -4 -8 -12 -2 -21 16 -25 11 -55 -14 -93 -13 -19 -21 -39 -18
-43 4 -4 -5 1 -20 10 -26 17 -28 17 -57 -3 -16 -12 -40 -21 -53 -22 -12 0 -17
-3 -10 -6 6 -2 12 -13 12 -23 0 -26 -64 -34 -107 -14 -24 12 -33 23 -33 41 0
23 3 25 45 21 28 -2 41 0 35 6 -17 17 -12 88 8 103 15 13 15 13 -6 3 -19 -9
-30 -8 -58 9 l-34 20 -21 -29 c-18 -23 -26 -27 -41 -19 -21 11 -23 41 -7 90
18 54 33 65 56 42 19 -19 19 -19 36 4 10 12 28 25 40 28 18 5 23 13 21 33 -2
25 2 27 40 30 27 1 52 -4 74 -18z m-223 -265 c14 -24 25 -51 25 -61 0 -37 -56
33 -74 93 -12 38 20 17 49 -32z"/>
<path d="M790 1596 c0 -2 7 -7 16 -10 8 -3 12 -2 9 4 -6 10 -25 14 -25 6z"/>
<path d="M922 1400 c0 -14 2 -19 5 -12 2 6 2 18 0 25 -3 6 -5 1 -5 -13z"/>
<path d="M2012 1629 c-12 -5 -25 -14 -27 -22 -3 -7 18 -80 47 -162 46 -130 56
-150 76 -153 34 -5 46 10 72 92 13 41 27 73 31 70 4 -2 17 -35 30 -72 27 -82
35 -94 68 -90 24 3 30 15 78 153 29 83 51 156 48 163 -6 15 -45 31 -62 25 -7
-3 -25 -43 -40 -89 -15 -46 -30 -81 -34 -76 -4 4 -16 37 -28 74 -24 74 -39 91
-72 86 -18 -2 -27 -18 -48 -80 -14 -42 -28 -79 -32 -82 -3 -3 -17 32 -32 78
-15 46 -33 86 -40 89 -7 2 -22 1 -35 -4z"/>
<path d="M296 1614 c-8 -20 -8 -288 0 -308 5 -13 24 -16 106 -16 96 0 100 1
128 29 38 38 46 73 28 120 -11 27 -12 44 -6 56 15 25 1 76 -29 107 -26 27 -31
28 -124 28 -79 0 -98 -3 -103 -16z m172 -91 c3 -17 -2 -22 -25 -25 -51 -6 -38
-68 14 -68 21 0 24 -4 21 -27 -3 -26 -7 -28 -50 -31 l-48 -3 0 91 0 91 43 -3
c34 -2 43 -7 45 -25z"/>
<path d="M1462 1601 c-10 -17 -45 -87 -77 -157 l-59 -126 23 -20 c30 -24 40
-20 70 25 24 36 26 37 85 37 60 0 61 -1 81 -37 24 -45 46 -52 74 -24 l20 20
-73 153 c-64 136 -75 153 -99 156 -21 3 -31 -4 -45 -27z m68 -163 c0 -5 -14
-8 -30 -8 l-31 0 17 32 16 32 14 -25 c7 -13 13 -27 14 -31z"/>
<path d="M1704 1617 c-2 -7 -3 -82 -2 -167 l3 -155 35 0 c34 0 35 1 38 43 3
42 3 42 43 42 45 0 108 29 125 57 37 60 19 138 -38 173 -26 16 -50 20 -116 20
-58 0 -84 -4 -88 -13z m166 -81 c6 -8 10 -25 8 -38 -3 -20 -10 -23 -50 -26
l-48 -3 0 34 c0 18 3 37 7 40 12 13 70 7 83 -7z"/>
<path d="M2592 1617 c-21 -25 -142 -278 -142 -296 0 -10 12 -23 26 -30 31 -14
46 -5 64 39 12 29 15 30 80 30 65 0 68 -1 80 -30 18 -44 33 -53 64 -39 16 8
26 20 26 33 -1 12 -33 84 -73 161 -54 105 -77 141 -93 143 -11 2 -26 -3 -32
-11z m46 -162 c11 -24 10 -25 -18 -25 -28 0 -29 1 -18 25 6 14 14 25 18 25 4
0 12 -11 18 -25z"/>
</g>
</svg>
